<?xml version="1.0" encoding="utf-8"?>
<svg xmlns="http://www.w3.org/2000/svg" fill="none" viewBox="0 0 63.3333 20" width="190" height="60">
<g id="Group 1000004089">
<g id="item">
<path d="M15.6747 4.40903C16.9595 4.40903 17.9231 3.47941 17.9231 2.20452C17.9231 0.956176 16.9595 0 15.6747 0C14.3898 0 13.3994 0.956176 13.3994 2.20452C13.3994 3.47941 14.3898 4.40903 15.6747 4.40903ZM17.5751 16.6799V6.18858H10V9.34927H13.7742V16.6799H10V19.8406H18.9849V16.6799H17.5751Z" fill="#1F282F"/>
<path d="M30.5368 19.8406V16.6799H27.3515C26.3611 16.6799 25.9864 16.2815 25.9864 15.3254V9.34927H30.4833V6.18858H25.9864V2.36388H22.2122V6.18858H18.9734V9.34927H22.2122V15.9363C22.2122 18.5392 23.5238 19.8406 26.147 19.8406H30.5368Z" fill="#1F282F"/>
<path d="M37.3897 20C41.0301 20 43.3856 17.8752 43.7871 15.2191H40.0664C39.7452 16.494 38.7281 17.158 37.2559 17.158C35.4357 17.158 34.2044 15.9894 34.1241 14.0505V13.8911H43.8674C43.9477 13.4396 43.9745 12.9349 43.9745 12.5896C43.9477 8.57902 41.1907 6.02922 37.1488 6.02922C32.9464 6.02922 30.1893 8.7915 30.1893 13.0412C30.1893 17.2643 32.8928 20 37.3897 20ZM34.2044 11.421C34.4186 9.8008 35.5963 8.81806 37.1756 8.81806C38.8084 8.81806 39.9326 9.74768 40.2003 11.421H34.2044Z" fill="#1F282F"/>
<path d="M58.7561 6.00266C57.0965 6.00266 55.8117 6.71979 54.9284 7.96813C54.2592 6.71979 52.9476 6.00266 51.3951 6.00266C50.03 6.00266 48.8522 6.53386 48.0492 7.5166L47.8618 6.18858H44.8104V19.8406H48.424V11.5803C48.424 10.2258 49.0931 9.24303 50.378 9.24303C51.8502 9.24303 52.2517 10.332 52.2517 11.5803V19.8406H55.892V11.6069C55.892 10.2523 56.588 9.24303 57.8728 9.24303C59.1576 9.24303 59.7197 10.2258 59.7197 11.5803V19.8406H63.3333V11.0757C63.3333 7.86189 61.6202 6.00266 58.7561 6.00266Z" fill="#1F282F"/>
</g>
<ellipse cx="3.33333" cy="12.0833" fill="#FF4F00" id="Ellipse 75" rx="3.33333" ry="3.33333"/>
</g>
</svg>